
<svg 
    xmlns="http://www.w3.org/2000/svg" 
    width="340" 
    height="146" 
    viewBox="0 0 340 146" 
    fill="none"
>
    <path 
        d="M157.028 137.204C168.309 137.168 179.555 136.625 190.764 135.877C211.967 134.372 233.001 131.469 253.397 126.936C263.631 124.745 273.552 122.109 282.944 118.796C292.275 115.456 301.1 111.431 308.397 106.346C309.131 105.82 309.853 105.286 310.516 104.716L312.406 102.962L312.262 103.042C316.271 99.7735 319.666 96.14 322.183 92.2304C324.711 88.3386 326.409 84.1262 327.276 79.7803C328.889 71.0705 327.155 61.9511 322.857 53.5798C320.328 48.7441 316.933 44.1487 312.779 39.9987C308.637 35.8665 303.629 32.0638 298.175 28.733C287.206 22.0449 274.166 17.1468 260.405 13.8428C246.607 10.5121 232.098 8.87342 217.373 8.38361C202.648 7.88489 187.754 8.51719 172.849 9.64821C163.529 10.3072 147.709 12.2219 147.347 9.20293C147.167 7.63553 149.635 6.06814 154.234 4.68776C158.834 3.30738 165.564 2.12293 173.884 1.4461C194.003 -0.165824 214.64 -0.717975 235.048 1.30361C245.27 2.25652 255.36 3.99312 265.172 6.3264C270.049 7.56429 274.913 8.86451 279.609 10.4764C281.993 11.2156 284.28 12.124 286.604 12.9611C287.748 13.4064 288.88 13.8784 290.011 14.3415C291.143 14.7957 292.287 15.2588 293.383 15.7753C306.398 21.5284 318.089 29.2941 326.397 39.0369C334.644 48.7084 339.496 59.9741 339.966 71.5158C340.195 77.2778 339.28 83.1199 337.04 88.7126C334.825 94.3143 331.213 99.6488 326.613 104.333C322.014 109.044 316.451 113.159 310.383 116.659C304.315 120.176 297.789 123.133 291.071 125.689C278.995 130.293 266.244 133.57 253.518 136.278C240.743 139.003 227.752 141.149 214.64 142.725C188.404 145.878 161.699 146.742 135.187 145.37C122.737 144.72 110.324 143.616 98.019 141.986C85.6056 140.33 73.3126 137.907 61.441 134.416C55.5052 132.689 49.6777 130.658 44.0429 128.307C38.4081 125.974 32.978 123.267 27.8971 120.167C22.8041 117.086 18.1446 113.524 14.075 109.561C10.0175 105.598 6.70641 101.154 4.2743 96.4606C0.120446 88.3742 -1.07153 79.2726 0.987337 70.8034C2.91376 62.2807 7.66963 54.3457 14.0027 47.3904C20.4081 40.4529 28.4269 34.4148 37.6255 29.5969C42.2249 27.1835 47.1011 25.0728 52.2302 23.3006C53.5185 22.8642 54.8189 22.4545 56.1192 22.0449L60.0443 20.9673C62.6329 20.1925 65.3299 19.676 67.9908 19.0615C69.2309 18.7587 70.5313 18.5539 71.8196 18.3312C73.1079 18.1086 74.4082 17.877 75.6965 17.6544C78.3092 17.2804 80.934 16.9152 83.5467 16.5412C86.1714 16.274 88.7601 15.8733 91.3246 15.5972C92.6009 15.4547 93.8771 15.3033 95.1293 15.1252C95.7554 15.0361 96.3815 14.9471 97.0076 14.858C97.6337 14.7779 98.2477 14.7066 98.8618 14.6265L98.6932 14.5909C100.21 14.7422 101.739 14.8224 103.305 14.8669C104.858 14.9204 106.435 15.0005 108.024 15.0094C111.215 15.0094 114.43 15.1163 117.668 15.1608C124.086 15.4191 130.515 15.9089 135.885 17.7613H135.897C136.873 17.9216 137.86 18.0819 138.847 18.2422L141.773 18.8032C143.711 19.1773 145.662 19.4979 147.552 19.8274C156.293 21.1899 161.567 22.6861 163.818 23.8884C166.07 25.0995 165.239 26.097 161.735 27.0766C160.206 27.513 161.182 28.7865 157.016 28.3323C157.004 28.3234 156.739 28.2076 156.739 28.2076L156.835 28.2878C150.803 28.1809 144.542 27.1745 138.089 26.1949C131.647 25.2242 125.061 24.0754 118.68 23.6657C103.076 22.5614 87.2791 23.1136 72.3975 26.1593L66.8831 27.4328C65.053 27.8692 63.2952 28.4391 61.4891 28.9379C57.9252 29.9709 54.554 31.2266 51.267 32.6337C44.7051 35.4746 38.6971 39.0191 33.3874 43.0622C28.0777 47.1054 23.5506 51.7007 19.9987 56.6256C16.4469 61.5593 13.9425 66.876 12.8108 72.3084C11.679 77.7409 11.9318 83.2802 13.7258 88.5434C15.58 93.8423 18.7225 98.8829 23.1171 103.345C28.4509 108.857 35.4342 113.551 43.2242 117.451C51.0262 121.361 59.6229 124.522 68.5687 127.069C77.5146 129.616 86.8216 131.567 96.2731 132.983L99.825 133.49L103.425 133.936C105.833 134.221 108.229 134.541 110.637 134.791C115.465 135.263 120.293 135.761 125.133 136.055C135.753 136.785 146.408 136.866 157.196 137.159L157.028 137.204Z" 
        fill="#4633FF"
    />
</svg>
